<svg xmlns="http://www.w3.org/2000/svg" xmlns:xlink="http://www.w3.org/1999/xlink" width="922" height="342" viewBox="0 0 922 342"><defs><clipPath id="b"><rect width="922" height="342"/></clipPath></defs><g id="a" clip-path="url(#b)"><g transform="translate(8.498 -31.53)"><g transform="translate(92.272 65.358)"><g transform="translate(334.673 -2.692)"><g transform="translate(0)"><path d="M96.472,0H71.081L33.54-65.915V0H8V-105.93H33.54L71.008-40.015V-105.93H96.472ZM202.329-50.782q0,15.5-5.748,27.428a42.478,42.478,0,0,1-16.333,18.37A45.48,45.48,0,0,1,156.13,1.455a46.123,46.123,0,0,1-24.009-6.22,42.407,42.407,0,0,1-16.333-17.788,60.669,60.669,0,0,1-6.148-26.555v-5.966q0-15.569,5.711-27.465a42.374,42.374,0,0,1,16.37-18.37,45.8,45.8,0,0,1,24.263-6.475,45.351,45.351,0,0,1,24.009,6.4A43.138,43.138,0,0,1,196.4-82.758q5.857,11.823,5.929,27.1ZM176.355-55.22q0-15.788-5.275-23.972a16.919,16.919,0,0,0-15.1-8.185q-19.207,0-20.3,28.811l-.073,7.785q0,15.569,5.166,23.936t15.351,8.367A16.69,16.69,0,0,0,171.044-26.7q5.238-8.221,5.311-23.645Zm97.781,35.431H239.142L233.031,0H205.748L244.6-105.93h24.009L307.749,0H280.321ZM245.253-39.505h22.772L256.6-76.246ZM375.628-19.789H340.634L334.522,0H307.24L346.09-105.93H370.1L409.241,0H381.813ZM346.745-39.505h22.772L358.095-76.246Z" transform="translate(-18 149)" fill="#003087"/><path d="M35.134-5.237a17.026,17.026,0,0,1-6.617,4.4A24.18,24.18,0,0,1,19.932.635Q11.965.635,7.554-4.3T3.015-18.662v-8.315q0-9.553,4.174-14.711T19.36-46.846q7.522,0,11.346,3.713t4.427,11.648H26.057Q25.676-35.9,24.216-37.5a5.9,5.9,0,0,0-4.57-1.6,5.978,5.978,0,0,0-5.491,2.761q-1.714,2.761-1.777,8.792v8.379q0,6.316,1.888,9.188t6.2,2.872A8.106,8.106,0,0,0,24.946-8.22l.825-.571v-8.474H19.233v-7.046h15.9ZM51.067-7.744H67.444V0H41.736V-46.211h9.331Zm52.273-11.2q0,9.3-4.4,14.441T86.741.635q-7.776,0-12.219-5.094T70.015-18.726v-7.9q0-9.521,4.412-14.869t12.251-5.348q7.712,0,12.156,5.253t4.507,14.742Zm-9.363-7.744q0-6.252-1.777-9.3a5.948,5.948,0,0,0-5.522-3.047A5.97,5.97,0,0,0,81.187-36.1q-1.777,2.936-1.841,8.934v8.22q0,6.062,1.809,8.934a6.137,6.137,0,0,0,5.586,2.872A5.98,5.98,0,0,0,92.168-9.95q1.777-2.809,1.809-8.712ZM110.037,0V-46.211h14.282q7.236,0,11,3.221t3.761,9.442a11.382,11.382,0,0,1-1.555,6.062,9.179,9.179,0,0,1-4.253,3.713,8.08,8.08,0,0,1,4.792,3.571,12.224,12.224,0,0,1,1.682,6.617q0,6.729-3.7,10.156T125.334,0Zm9.331-20.09V-7.744h5.967A4.684,4.684,0,0,0,129.143-9.3a6.69,6.69,0,0,0,1.3-4.412q0-6.221-4.507-6.379Zm0-6.792h4.856q5.491,0,5.491-5.681,0-3.142-1.27-4.507a5.414,5.414,0,0,0-4.126-1.365h-4.951ZM168.562-9.458H155.835L153.359,0h-9.871L157.93-46.211h8.538L181,0h-9.966Zm-10.7-7.776H166.5l-4.316-16.472Zm36.785,9.49h16.377V0H185.32V-46.211h9.331Zm69.285-11.2q0,9.3-4.4,14.441T247.336.635q-7.776,0-12.219-5.094T230.61-18.726v-7.9q0-9.521,4.412-14.869t12.251-5.348q7.712,0,12.156,5.253t4.507,14.742Zm-9.363-7.744q0-6.252-1.777-9.3a5.948,5.948,0,0,0-5.522-3.047,5.97,5.97,0,0,0-5.491,2.936q-1.777,2.936-1.841,8.934v8.22q0,6.062,1.809,8.934a6.137,6.137,0,0,0,5.586,2.872,5.98,5.98,0,0,0,5.427-2.809q1.777-2.809,1.809-8.712Zm47.385,11.3q-.349,7.9-4.443,11.965T285.962.635q-7.839,0-12.013-5.157t-4.174-14.711v-7.776q0-9.521,4.316-14.679t12-5.157q7.554,0,11.473,4.221T302.021-30.5h-9.363q-.127-4.888-1.508-6.744T286.089-39.1q-3.745,0-5.3,2.618t-1.65,8.617v8.728q0,6.887,1.539,9.458t5.284,2.571q3.682,0,5.078-1.793t1.587-6.49ZM331.57-20H317.034V-7.744h17.2V0H307.7V-46.211h26.47v7.776H317.034v10.918H331.57ZM361.658-9.458H348.931L346.455,0h-9.871l14.441-46.211h8.538L374.1,0h-9.966Zm-10.7-7.776h8.633l-4.316-16.472ZM410.725,0h-9.331L387.747-30.31V0h-9.331V-46.211h9.331l13.679,30.342V-46.211h9.3ZM9.051,13.7,14.02,32.719,18.97,13.7h6.938V40h-5.33V32.882l.488-10.966L15.808,40H12.195L6.938,21.916l.488,10.966V40H2.114V13.7ZM48.689,29.214q0,5.293-2.5,8.22a8.649,8.649,0,0,1-6.947,2.927,8.748,8.748,0,0,1-6.956-2.9q-2.529-2.9-2.565-8.121v-4.5q0-5.42,2.511-8.464A8.544,8.544,0,0,1,39.2,13.334a8.584,8.584,0,0,1,6.919,2.99q2.529,2.99,2.565,8.392Zm-5.33-4.408a10.8,10.8,0,0,0-1.012-5.293,3.737,3.737,0,0,0-6.269-.063,10.264,10.264,0,0,0-1.048,5.086v4.679a9.782,9.782,0,0,0,1.03,5.086,3.493,3.493,0,0,0,3.18,1.635,3.4,3.4,0,0,0,3.089-1.6,9.593,9.593,0,0,0,1.03-4.959ZM70.893,40H65.581L57.813,22.747V40H52.5V13.7h5.312L65.6,30.967V13.7h5.293Zm9.81,0H75.391V13.7H80.7Zm20.975-21.878h-6.5V40h-5.33V18.122h-6.4V13.7h18.229Zm21.065,11.093q0,5.293-2.5,8.22a8.649,8.649,0,0,1-6.947,2.927,8.748,8.748,0,0,1-6.956-2.9q-2.529-2.9-2.565-8.121v-4.5q0-5.42,2.511-8.464a9.506,9.506,0,0,1,13.893-.054q2.529,2.99,2.565,8.392Zm-5.33-4.408a10.8,10.8,0,0,0-1.012-5.293,3.737,3.737,0,0,0-6.269-.063,10.264,10.264,0,0,0-1.048,5.086v4.679a9.782,9.782,0,0,0,1.03,5.086,3.493,3.493,0,0,0,3.18,1.635,3.4,3.4,0,0,0,3.089-1.6,9.593,9.593,0,0,0,1.03-4.959Zm17.109,5.583h-2.638V40h-5.312V13.7h8.473a8.606,8.606,0,0,1,6.17,2.069,7.725,7.725,0,0,1,2.177,5.881q0,5.239-3.812,7.335l4.607,10.768V40h-5.709Zm-2.638-4.426H134.9a2.794,2.794,0,0,0,2.385-1.057,4.592,4.592,0,0,0,.795-2.827q0-3.957-3.089-3.957h-3.107ZM152.589,40h-5.312V13.7h5.312Zm22.854,0h-5.312l-7.769-17.253V40h-5.312V13.7h5.312l7.787,17.271V13.7h5.293Zm22.149-2.981a9.692,9.692,0,0,1-3.767,2.5,13.764,13.764,0,0,1-4.887.84,8.961,8.961,0,0,1-7.046-2.809q-2.511-2.809-2.583-8.175V24.644q0-5.438,2.376-8.374a8.39,8.39,0,0,1,6.928-2.936q4.282,0,6.459,2.114t2.52,6.63h-5.167a6,6,0,0,0-1.048-3.424,3.356,3.356,0,0,0-2.6-.912,3.4,3.4,0,0,0-3.125,1.572,10.017,10.017,0,0,0-1.012,5v4.77a9.787,9.787,0,0,0,1.075,5.23,3.91,3.91,0,0,0,3.532,1.635,4.614,4.614,0,0,0,2.547-.632l.47-.325V30.172h-3.722V26.161h9.051Zm11.472-4.1a6.806,6.806,0,0,1,.84-3.369,13.039,13.039,0,0,1,3.153-3.406,19.671,19.671,0,0,1-1.572-2.972,7.527,7.527,0,0,1-.578-2.9,7.249,7.249,0,0,1,1.716-5.013,5.845,5.845,0,0,1,4.589-1.924,5.582,5.582,0,0,1,4.255,1.78,6.135,6.135,0,0,1,1.671,4.363,7.051,7.051,0,0,1-2.873,5.727l-1.445,1.174,3.378,4.715a12.387,12.387,0,0,0,.632-4.011h4.318a14.9,14.9,0,0,1-1.987,8.166l3.4,4.751h-5.8l-.976-1.373a8.776,8.776,0,0,1-5.384,1.734,7.133,7.133,0,0,1-5.33-2.042A7.375,7.375,0,0,1,209.064,32.918Zm7.606,3.216a4.436,4.436,0,0,0,2.692-.939l-4.155-5.872-.108.09a5.74,5.74,0,0,0-.9,3.2,4.239,4.239,0,0,0,.714,2.52A2.106,2.106,0,0,0,216.67,36.134Zm-1.21-15.953a6.091,6.091,0,0,0,1.229,3.144l.849-.65a3.739,3.739,0,0,0,1.084-1.2,3.632,3.632,0,0,0,.325-1.671,2.445,2.445,0,0,0-.515-1.581,1.542,1.542,0,0,0-1.238-.641,1.446,1.446,0,0,0-1.265.714A3.385,3.385,0,0,0,215.46,20.181Zm42.89,9.033q0,5.293-2.5,8.22a8.649,8.649,0,0,1-6.947,2.927,8.748,8.748,0,0,1-6.956-2.9q-2.529-2.9-2.565-8.121v-4.5q0-5.42,2.511-8.464a9.506,9.506,0,0,1,13.893-.054q2.529,2.99,2.565,8.392Zm-5.33-4.408a10.8,10.8,0,0,0-1.012-5.293,3.737,3.737,0,0,0-6.269-.063,10.264,10.264,0,0,0-1.048,5.086v4.679a9.782,9.782,0,0,0,1.03,5.086,3.493,3.493,0,0,0,3.18,1.635,3.4,3.4,0,0,0,3.089-1.6,9.593,9.593,0,0,0,1.03-4.959ZM262.162,40V13.7h8.13q4.119,0,6.26,1.834a6.687,6.687,0,0,1,2.141,5.375,6.479,6.479,0,0,1-.885,3.451,5.225,5.225,0,0,1-2.421,2.114,4.6,4.6,0,0,1,2.728,2.032,6.958,6.958,0,0,1,.958,3.767,7.5,7.5,0,0,1-2.1,5.781A8.655,8.655,0,0,1,270.87,40Zm5.312-11.436v7.028h3.4a2.666,2.666,0,0,0,2.168-.885,3.808,3.808,0,0,0,.741-2.511q0-3.541-2.565-3.631Zm0-3.866h2.764q3.125,0,3.125-3.234a3.71,3.71,0,0,0-.723-2.565,3.082,3.082,0,0,0-2.349-.777h-2.818Zm26.558,8.4a3.3,3.3,0,0,0-.822-2.43,9.465,9.465,0,0,0-2.99-1.707,13.933,13.933,0,0,1-5.691-3.514,7.061,7.061,0,0,1-1.734-4.76,6.674,6.674,0,0,1,2.358-5.339,9.8,9.8,0,0,1,10.307-.994,7.081,7.081,0,0,1,2.918,2.882,8.644,8.644,0,0,1,1.021,4.228H294.1a4.362,4.362,0,0,0-.786-2.809,2.753,2.753,0,0,0-2.267-.967,2.839,2.839,0,0,0-2.168.822,3.09,3.09,0,0,0-.777,2.213,2.725,2.725,0,0,0,.867,1.96,9.972,9.972,0,0,0,3.071,1.816,13.159,13.159,0,0,1,5.592,3.415,7.607,7.607,0,0,1,1.743,5.149,6.79,6.79,0,0,1-2.186,5.366,8.654,8.654,0,0,1-5.944,1.933,10.236,10.236,0,0,1-4.643-1.048,7.86,7.86,0,0,1-3.279-3,8.712,8.712,0,0,1-1.183-4.607h5.33a5.026,5.026,0,0,0,.885,3.306,3.624,3.624,0,0,0,2.891,1.03Q294.031,36.043,294.031,33.1Zm22.457-4.48h-8.274v6.974H318V40H302.9V13.7h15.067v4.426h-9.756v6.215h8.274Zm12.538,1.771h-2.638V40h-5.312V13.7h8.473a8.606,8.606,0,0,1,6.17,2.069,7.725,7.725,0,0,1,2.177,5.881q0,5.239-3.812,7.335l4.607,10.768V40h-5.709Zm-2.638-4.426H329.4a2.794,2.794,0,0,0,2.385-1.057,4.593,4.593,0,0,0,.795-2.827q0-3.957-3.089-3.957h-3.107Zm23.378,6.811L354.192,13.7h5.926L352.53,40H347l-7.534-26.3h5.89ZM368.139,40h-5.312V13.7h5.312Zm22.854,0h-5.312l-7.769-17.253V40H372.6V13.7h5.312L385.7,30.967V13.7h5.293Zm22.149-2.981a9.692,9.692,0,0,1-3.767,2.5,13.764,13.764,0,0,1-4.887.84,8.961,8.961,0,0,1-7.046-2.809q-2.511-2.809-2.583-8.175V24.644q0-5.438,2.376-8.374a8.39,8.39,0,0,1,6.928-2.936q4.282,0,6.459,2.114t2.52,6.63h-5.167a6,6,0,0,0-1.048-3.424,3.356,3.356,0,0,0-2.6-.912,3.4,3.4,0,0,0-3.125,1.572,10.017,10.017,0,0,0-1.012,5v4.77a9.787,9.787,0,0,0,1.075,5.23,3.91,3.91,0,0,0,3.532,1.635,4.614,4.614,0,0,0,2.547-.632l.47-.325V30.172h-3.722V26.161h9.051Z" transform="translate(-18 207.287)" fill="#0085ca"/></g></g><g transform="translate(0)"><path d="M260.107,112c-19.561,29.51-51.992,70.446-89.651,84.213l-4.8,1.961a10.352,10.352,0,0,0,2.812.821c.48,0,1.036.046,1.661.068.762.046,1.524.053,2.393.038a3.4,3.4,0,0,0,.4,0c9.563-.372,23.5-4.379,26.175,5.321-31.73,1.391-43.435,9.191-54.454,14.284-17.062,9.517-38.71,17.8-52.869,4.561,11.346-1.52,32.271-8.362,39.625-15.052-60-.806-86.649-38.047-105.318-58.435-6.721-7.708-13.617-14.367-20.727-14.915A137.08,137.08,0,1,0,260.107,112Z" transform="translate(0 -35.184)" fill="#0085ca" fill-rule="evenodd"/><path d="M28.756,138.151c18.7,20.408,45.381,57.686,105.5,58.5-7.394,6.689-28.349,13.56-39.681,15.066,14.178,13.24,35.865,4.954,52.943-4.566,11.034-5.1,22.755-12.936,54.53-14.3-2.678-9.709-16.635-5.7-26.212-5.326a3.4,3.4,0,0,1-.4,0c-.839,0-1.641,0-2.4-.038-.626,0-1.183-.038-1.664-.068a10.37,10.37,0,0,1-2.816-.822l4.807-1.963c37.712-13.78,70.2-54.786,89.778-84.3a136.732,136.732,0,0,0-14-22.341c-35.354,6.415-46.648,58.043-66.908,83.61-26.609,37.179-52.134,29.06-78.987,4.162-26.708-24.35-46.785-68.909-75.2-83.922A136.278,136.278,0,0,0,8,123.222C15.12,123.77,22.026,130.435,28.756,138.151Z" transform="translate(-2.513 -24.503)" fill="#fff" fill-rule="evenodd"/><path d="M112.117,141.959c26.792,24.961,52.319,33.1,78.89-4.182,20.237-25.632,31.518-77.408,66.839-83.841A137.107,137.107,0,0,0,37,57.805C65.385,72.861,85.4,117.54,112.117,141.959Z" transform="translate(-11.623 0)" fill="#003087" fill-rule="evenodd"/><g transform="translate(82.127 53.535)"><path d="M16.751,35.635h7.212V6.929C23.963,3.135,20.354.1,15.586.1H.744V35.666H7.956V6.929h6.595c1.4,0,2.2.994,2.2,2.6Z" transform="translate(-0.744 -0.069)" fill="#fff" fill-rule="evenodd"/><path d="M84.786,35.635V6.929c0-4.424,4.8-6.829,7.2-6.829h8.819c3.594,0,7.2,2.436,7.2,6.829V35.635h-7.2V22.2H91.99V35.635ZM100.778,9.524a2.554,2.554,0,0,0-2.559-2.6H94.412a2.622,2.622,0,0,0-2.406,2.6v5.82h8.8Z" transform="translate(-27.145 -0.069)" fill="#fff"/><path d="M126.812,35.635V6.929c0-4.424,4.8-6.829,7.2-6.829h8.819c3.587,0,7.189,2.436,7.189,6.829V35.635h-7.189V22.2h-8.819V35.635ZM142.8,9.524a2.547,2.547,0,0,0-2.612-2.6h-3.808a2.622,2.622,0,0,0-2.391,2.6v5.82h8.819Z" transform="translate(-40.347 -0.069)" fill="#fff"/><path d="M58.664.055H49.853c-2.4,0-7.2,1.8-7.2,6.829v22.1c0,3.407,4.409,6.64,7.2,6.64h8.811c3.206,0,7.212-3.84,7.212-6.64V6.885A6.973,6.973,0,0,0,58.664.055Zm0,26.559a2.349,2.349,0,0,1-2.353,2.345H52.236a2.349,2.349,0,0,1-2.361-2.345V9.063a2.349,2.349,0,0,1,2.361-2.345h4.1a2.349,2.349,0,0,1,2.353,2.345Z" transform="translate(-13.908 -0.055)" fill="#fff"/></g></g></g><g transform="translate(70.059 45)"><circle cx="157.53" cy="157.53" r="157.53" transform="translate(0 0)" fill="#fff"/><path d="M39.843,251.347l-7.077,3.875a4.881,4.881,0,0,0-1.819,1.61,2.834,2.834,0,0,0,.044,3.044,3.166,3.166,0,0,0,2.825,1.959A4.9,4.9,0,0,0,36,261.144l7.077-3.875.875,1.566-6.429,3.5a8.487,8.487,0,0,1-3.56,1.207c-1.749.061-3.184-.875-4.242-2.817s-1.093-3.639-.087-5.091a8.555,8.555,0,0,1,2.939-2.344L39,249.79Z" transform="translate(-3.621 -31.291)" fill="#003087"/><path d="M36.766,269.46l1,1.566-1.636,1.041-1-1.566Z" transform="translate(-4.401 -33.755)" fill="#003087"/><path d="M42.774,273.47a3.542,3.542,0,0,0-1.163,1.469,3.263,3.263,0,0,0,.7,3.175,5.3,5.3,0,0,0,1.251,1.251,2.012,2.012,0,0,0,2.493.079,1.749,1.749,0,0,0,.875-1.417,6.228,6.228,0,0,0-.569-2.117l-.682-1.618a7.6,7.6,0,0,1-.7-2.432,2.764,2.764,0,0,1,1.268-2.405,3.8,3.8,0,0,1,3.035-.735,4.644,4.644,0,0,1,2.887,2.056,5.765,5.765,0,0,1,1.19,3.324,3.63,3.63,0,0,1-1.749,2.992l-.971-1.347a3.35,3.35,0,0,0,.98-1.382,3.105,3.105,0,0,0-.717-2.729,2.956,2.956,0,0,0-1.8-1.365,2.1,2.1,0,0,0-1.618.367,1.5,1.5,0,0,0-.682,1.452,11.268,11.268,0,0,0,.77,2.274l.709,1.688a5.249,5.249,0,0,1,.49,2.082,3.14,3.14,0,0,1-1.443,2.537,3.341,3.341,0,0,1-3.411.577,6.752,6.752,0,0,1-2.852-2.353,5.249,5.249,0,0,1-1.172-3.735,4.269,4.269,0,0,1,1.933-3.035Z" transform="translate(-4.995 -33.654)" fill="#003087"/><path d="M48.856,286.29l1.181,1.426-1.5,1.233-1.181-1.434Z" transform="translate(-5.933 -35.863)" fill="#003087"/><path d="M64.768,286.64l3.7,3.674a4.872,4.872,0,0,1,1.575,4.26,7.112,7.112,0,0,1-2.178,4.05,8.95,8.95,0,0,1-3.167,2.125,4.767,4.767,0,0,1-5.406-1.19l-3.683-3.665Zm-4.68,11.616a4.836,4.836,0,0,0,1.155.875,3.16,3.16,0,0,0,2.117.219,5.5,5.5,0,0,0,1.951-.919,8.409,8.409,0,0,0,1.05-.875,6.473,6.473,0,0,0,1.986-3.341,3.447,3.447,0,0,0-1.207-3.088l-2.178-2.161L57.9,296.078Z" transform="translate(-6.966 -35.907)" fill="#003087"/><path d="M75.447,296.89l7.313,6.044-1.023,1.233-5.974-4.942-2.537,3.009,5.511,4.575-.962,1.163-5.511-4.54-2.825,3.411,6.062,5.012-.988,1.19-7.391-6.123Z" transform="translate(-8.408 -37.191)" fill="#003087"/><path d="M86.036,305.39l4.8,3.324a4.042,4.042,0,0,1,1.749,2.406,3.56,3.56,0,0,1-.7,2.869,3.99,3.99,0,0,1-2.3,1.645,3.577,3.577,0,0,1-3.035-.726l-3.35-2.318-3.14,4.531-1.452-1.006Zm4.61,5.38a3.747,3.747,0,0,0-1.155-1.137l-2.869-1.959-2.572,3.718,2.869,1.986a3.333,3.333,0,0,0,1.863.682,2.038,2.038,0,0,0,1.627-1.05,1.977,1.977,0,0,0,.236-2.239Z" transform="translate(-9.847 -38.256)" fill="#003087"/><path d="M99.059,314.28l1.749,1.015-2.5,13.655-1.671-.98.8-4.059-4.374-2.624-3.193,2.624-1.566-.918ZM97.7,322.415l1.172-5.992-4.715,3.919Z" transform="translate(-11.061 -39.37)" fill="#003087"/><path d="M107.921,318.89l5.371,2.528a5.8,5.8,0,0,1,2,1.417,3.1,3.1,0,0,1,.324,3.56,3.219,3.219,0,0,1-2.992,2.038,2.624,2.624,0,0,1,.691,1.233,2.939,2.939,0,0,1-.306,1.671l-.691,1.609a5.336,5.336,0,0,0-.359,1.059,1.093,1.093,0,0,0,.175.962l-.122.262-1.968-.918a1.866,1.866,0,0,1,.061-.455,9.243,9.243,0,0,1,.359-.971l.831-2.012a1.846,1.846,0,0,0-.114-1.951,3.829,3.829,0,0,0-1.295-.875l-3.5-1.662-2.379,5.065-1.6-.752Zm2.624,7.873a3.22,3.22,0,0,0,1.942.359,2.038,2.038,0,0,0,1.4-1.321,1.942,1.942,0,0,0-.087-2.143,3.132,3.132,0,0,0-1.155-.875l-3.805-1.749-1.9,4.041Z" transform="translate(-12.829 -39.947)" fill="#003087"/><path d="M130.142,327.97l-.534,1.452-4.129-1.522-3.989,10.777-1.679-.621,4-10.777-4.129-1.487.542-1.452Z" transform="translate(-14.992 -40.63)" fill="#003087"/><path d="M132.464,329l2.449.656.779,11.625,6.447-9.745,2.423.647-3.359,12.6-1.627-.429,1.986-7.444c.07-.263.184-.682.359-1.277s.341-1.225.525-1.907l-6.429,9.674-1.688-.446-.8-11.608-.1.385c-.079.306-.192.779-.35,1.417s-.262,1.111-.341,1.4L130.767,342l-1.627-.429Z" transform="translate(-16.177 -41.214)" fill="#003087"/><path d="M149.238,333.13l9.351,1.531-.262,1.583-7.645-1.26-.639,3.91,7.068,1.163-.245,1.487L149.8,340.39l-.717,4.374,7.776,1.277-.254,1.531-9.473-1.557Z" transform="translate(-18.431 -41.731)" fill="#003087"/><path d="M162.494,335.18l2.082.149,5.721,11,.77-10.5,1.679.122-.953,13.016-1.977-.14L164,337.839l-.77,10.5-1.688-.122Z" transform="translate(-20.236 -41.988)" fill="#003087"/><path d="M186.5,335.92v1.557l-4.374.07.184,11.494h-1.749l-.184-11.468-4.374.07v-1.548Z" transform="translate(-22.047 -42.08)" fill="#003087"/><path d="M208.056,335.3a7.147,7.147,0,0,1,1.942,4.19,7.759,7.759,0,0,1-.735,5.03,6.6,6.6,0,0,1-9.552,1.75,7.576,7.576,0,0,1-2.248-4.575,7.689,7.689,0,0,1,.63-4.671,5.677,5.677,0,0,1,4.575-3.131A5.966,5.966,0,0,1,208.056,335.3Zm-.3,8.459a7.155,7.155,0,0,0,.455-3.962,5.476,5.476,0,0,0-1.749-3.5,4.137,4.137,0,0,0-3.5-.875,4.373,4.373,0,0,0-3.062,1.872,5.851,5.851,0,0,0-.656,4.251A6.027,6.027,0,0,0,200.883,345a4.1,4.1,0,0,0,3.735.936A3.665,3.665,0,0,0,207.758,343.755Z" transform="translate(-24.721 -41.806)" fill="#003087"/><path d="M212.87,332.342l8.8-2.152.376,1.557-7.077,1.749.945,3.849,6.219-1.531.367,1.513-6.219,1.522,1.417,5.765-1.75.42Z" transform="translate(-26.666 -41.363)" fill="#003087"/><path d="M243.644,323.27a4.688,4.688,0,0,1,2.528,2.169l-1.592.656a3.657,3.657,0,0,0-1.828-1.4,3.6,3.6,0,0,0-2.51.245,3.84,3.84,0,0,0-2.3,2.432,6.185,6.185,0,0,0,.525,4.286,6.123,6.123,0,0,0,2.4,3.027,3.639,3.639,0,0,0,3.446.114,3.324,3.324,0,0,0,2.125-2.51,5.923,5.923,0,0,0-.07-2.231l1.592-.665a5.922,5.922,0,0,1-.07,3.779,5.309,5.309,0,0,1-3.175,3.14,5.432,5.432,0,0,1-4.015.184q-2.563-.875-4.024-4.426a7.225,7.225,0,0,1-.429-4.951,5.484,5.484,0,0,1,3.385-3.586A5.249,5.249,0,0,1,243.644,323.27Z" transform="translate(-29.563 -40.461)" fill="#003087"/><path d="M258.543,316.672a7.242,7.242,0,0,1,3.245,3.289,7.785,7.785,0,0,1,.988,4.986,6.578,6.578,0,0,1-8.415,4.837,7.54,7.54,0,0,1-3.648-3.543,7.714,7.714,0,0,1-.98-4.619,5.686,5.686,0,0,1,3.254-4.487,5.965,5.965,0,0,1,5.555-.464Zm2.563,8.065a7.128,7.128,0,0,0-.875-3.884,5.493,5.493,0,0,0-2.817-2.7,4.077,4.077,0,0,0-3.56.324,4.278,4.278,0,0,0-2.257,2.782,5.852,5.852,0,0,0,.813,4.225,5.966,5.966,0,0,0,2.694,2.7,4.129,4.129,0,0,0,3.84-.367,3.691,3.691,0,0,0,2.161-3.044Z" transform="translate(-31.279 -39.609)" fill="#003087"/><path d="M261.36,312.4l2.1-1.417,9.29,7.042-3.1-11.223,2.091-1.408,7.3,10.812-1.4.945-4.312-6.377c-.149-.219-.394-.595-.726-1.111s-.7-1.067-1.093-1.653l3.07,11.214-1.452.98-9.272-7,.219.333.875,1.19c.385.534.656.927.831,1.181l4.312,6.386-1.4.945Z" transform="translate(-32.74 -38.256)" fill="#003087"/><path d="M275.22,302.711l1.933-1.636,9.99,6L282.9,296.247l1.916-1.627,8.424,9.972-1.286,1.093-4.977-5.887-.875-1.023q-.577-.726-1.26-1.522l4.26,10.82-1.338,1.128-9.972-5.983.254.306.962,1.1c.437.49.761.875.954,1.085l4.977,5.887-1.295,1.085Z" transform="translate(-34.477 -36.907)" fill="#003087"/><path d="M288.13,291.688l6.613-6.788,1.146,1.12-5.406,5.546,2.834,2.764,4.995-5.126,1.076,1.032-5,5.126,3.175,3.088,5.5-5.642,1.111,1.085-6.709,6.875Z" transform="translate(-36.094 -35.689)" fill="#003087"/><path d="M297.49,281.957l3.744-4.6a5.885,5.885,0,0,1,1.863-1.6,3.088,3.088,0,0,1,3.5.551,3.5,3.5,0,0,1,1.19,1.583,3.606,3.606,0,0,1,.07,1.811,2.621,2.621,0,0,1,1.365-.376,2.887,2.887,0,0,1,1.539.7l1.4,1.059a4.674,4.674,0,0,0,.945.6,1.085,1.085,0,0,0,.971.07l.228.184-1.365,1.679a1.581,1.581,0,0,1-.429-.166,8.481,8.481,0,0,1-.875-.577l-1.749-1.295a1.845,1.845,0,0,0-1.916-.367,3.84,3.84,0,0,0-1.163,1.05l-2.467,3.027,4.373,3.5-1.111,1.373Zm8.257-.673a3.254,3.254,0,0,0,.822-1.8,2.038,2.038,0,0,0-.945-1.68,1.942,1.942,0,0,0-2.1-.437,3.2,3.2,0,0,0-1.093.927l-2.624,3.254,3.455,2.817Z" transform="translate(-37.266 -34.504)" fill="#003087"/><path d="M312.624,263.5a4.627,4.627,0,0,1,3.3.42l-.962,1.435a3.551,3.551,0,0,0-2.292-.166,3.6,3.6,0,0,0-1.959,1.6,3.849,3.849,0,0,0-.577,3.289,6.254,6.254,0,0,0,2.808,3.28,6.07,6.07,0,0,0,3.674,1.2,3.665,3.665,0,0,0,2.939-1.811,3.315,3.315,0,0,0,.376-3.263,5.876,5.876,0,0,0-1.286-1.82l.962-1.426a5.887,5.887,0,0,1,2.029,3.175,5.389,5.389,0,0,1-.875,4.374,5.475,5.475,0,0,1-3.254,2.37q-2.624.656-5.791-1.469a7.2,7.2,0,0,1-3.1-3.893,5.476,5.476,0,0,1,.875-4.855A5.248,5.248,0,0,1,312.624,263.5Z" transform="translate(-38.632 -32.992)" fill="#003087"/><path d="M314.54,258.11l4.549-8.31,1.4.77-3.718,6.8,3.5,1.9,3.429-6.281,1.33.726-3.438,6.28,3.884,2.126,3.779-6.919,1.365.744-4.61,8.432Z" transform="translate(-39.402 -31.292)" fill="#003087"/><path d="M276.622,115c-18.282,27.65-48.6,66.007-83.8,78.909l-4.487,1.837a9.763,9.763,0,0,0,2.624.77l1.548.061a17.361,17.361,0,0,0,2.239,0h.376c8.94-.35,21.964-4.1,24.492,4.986-29.662,1.3-40.6,8.607-50.9,13.383-15.946,8.913-36.179,16.672-49.414,4.277,10.6-1.408,30.161-7.873,37.062-14.1-56.114-.761-81.018-35.654-98.468-54.758-6.281-7.225-12.727-13.462-19.367-14A128.218,128.218,0,1,0,276.622,115Z" transform="translate(-4.196 -14.406)" fill="#0085ca"/><path d="M58.594,147.359c17.451,19.1,42.354,54,98.468,54.758-6.9,6.263-26.461,12.692-37.062,14.1,13.235,12.395,33.467,4.636,49.414-4.277,10.3-4.776,21.238-12.08,50.9-13.383-2.5-9.088-15.526-5.336-24.492-4.986h-2.615l-1.548-.061a9.766,9.766,0,0,1-2.624-.77l4.487-1.837c35.2-12.9,65.517-51.259,83.8-78.909A127.78,127.78,0,0,0,264.27,91.07c-32.995,6-43.535,54.329-62.447,78.262-24.834,34.806-48.687,27.2-73.722,3.9-24.965-22.743-43.667-64.5-70.2-78.551A127.623,127.623,0,0,0,39.21,133.4C45.867,133.871,52.313,140.134,58.594,147.359Z" transform="translate(-4.912 -11.408)" fill="#fff"/><path d="M130.8,166.026c25.035,23.3,48.889,30.9,73.722-3.9,18.912-23.933,29.452-72.262,62.447-78.262A128.236,128.236,0,0,0,60.6,87.458C87.131,101.506,105.832,143.23,130.8,166.026Z" transform="translate(-7.591 -4.201)" fill="#003087"/><g transform="translate(106.009 79.212)"><path d="M136.165,123.948h6.727V97c0-3.586-3.376-6.438-7.873-6.438H121.19v33.388h6.753V97h6.2c1.312,0,2.056.936,2.056,2.441h0Z" transform="translate(-121.19 -90.557)" fill="#fff"/><path d="M182.83,123.948V97c0-4.155,4.487-6.438,6.735-6.438h8.284c3.359,0,6.727,2.283,6.727,6.438v26.95h-6.727V111.335H189.6v12.614Zm14.984-24.492a2.4,2.4,0,0,0-2.449-2.441h-3.551a2.458,2.458,0,0,0-2.248,2.441v5.485h8.284Z" transform="translate(-128.912 -90.557)" fill="#fff"/><path d="M213.65,123.948V97c0-4.155,4.487-6.438,6.735-6.438h8.249c3.359,0,6.727,2.283,6.727,6.438v26.95h-6.727V111.335h-8.249v12.614Zm14.984-24.492A2.388,2.388,0,0,0,226.2,97h-3.569a2.449,2.449,0,0,0-2.239,2.441v5.5h8.249Z" transform="translate(-132.772 -90.557)" fill="#fff"/><path d="M166.9,90.56h-8.24c-2.239,0-6.744,1.688-6.744,6.412v20.74c0,3.2,4.129,6.237,6.744,6.237h8.24c3,0,6.744-3.6,6.744-6.237V96.971A6.534,6.534,0,0,0,166.9,90.56Zm0,24.912a2.2,2.2,0,0,1-2.2,2.2h-3.831a2.2,2.2,0,0,1-2.2-2.2V99.018a2.2,2.2,0,0,1,2.2-2.2H164.7a2.2,2.2,0,0,1,2.2,2.2Z" transform="translate(-125.04 -90.556)" fill="#fff"/></g><path d="M15.449,225.35l-.507-2.021,8.66-8.861-10.226,2.545L13,215.378l12.666-3.158.481,1.933L17.522,223.1l10.217-2.546.411,1.644Z" transform="translate(-1.629 -26.585)" fill="#003087"/><path d="M11.407,205.964l-.3-1.977,12.15-6.657.3,1.916L19.9,201.179l.779,5.065,4.076.8.271,1.793ZM18.58,201.9l-5.4,2.86,6.018,1.19Z" transform="translate(-1.392 -24.719)" fill="#003087"/><path d="M9.37,187.512l1.548-.122.341,4.374,11.459-.875.14,1.749-11.459.875.341,4.374-1.548.123Z" transform="translate(-1.174 -23.474)" fill="#003087"/><path d="M9.37,184.162v-1.749l13.042-.262V183.9Z" transform="translate(-1.174 -22.818)" fill="#003087"/><path d="M11.572,165.891a7.252,7.252,0,0,1,4.487-1.085,7.794,7.794,0,0,1,4.785,1.75,6.6,6.6,0,0,1-.184,9.7,7.523,7.523,0,0,1-4.925,1.3,7.75,7.75,0,0,1-4.461-1.531,5.7,5.7,0,0,1-2.169-5.108A5.977,5.977,0,0,1,11.572,165.891ZM19.8,167.85A7.129,7.129,0,0,0,16,166.626a5.467,5.467,0,0,0-3.761,1.023,4.085,4.085,0,0,0-1.557,3.219,4.277,4.277,0,0,0,1.225,3.368,5.878,5.878,0,0,0,4.041,1.47,6.019,6.019,0,0,0,3.709-.918,4.12,4.12,0,0,0,1.653-3.5,3.665,3.665,0,0,0-1.5-3.438Z" transform="translate(-1.137 -20.642)" fill="#003087"/><path d="M10.28,159.4l.306-2.056,11.372-4.907-10.427-1.531.245-1.671,12.911,1.9-.289,1.968L13.027,158.1l10.427,1.539-.254,1.636Z" transform="translate(-1.288 -18.695)" fill="#003087"/><path d="M13.89,140.174l.472-1.942,13.795-1.522-.455,1.881-4.12.4-1.207,4.969,3.5,2.3-.429,1.75Zm8.17-1.032-6.071.595,5.108,3.35Z" transform="translate(-1.74 -17.126)" fill="#003087"/><path d="M16.84,129.036l.56-1.671,10.9,3.656,2.082-6.2,1.478.5-2.624,7.872Z" transform="translate(-2.11 -15.636)" fill="#003087"/><path d="M29.963,101.606a7.155,7.155,0,0,1,4.557.761,7.741,7.741,0,0,1,3.726,3.446,6.593,6.593,0,0,1-3.963,8.861,7.523,7.523,0,0,1-5.038-.726,7.759,7.759,0,0,1-3.5-3.158,5.686,5.686,0,0,1,0-5.546A5.945,5.945,0,0,1,29.963,101.606Zm6.814,5.021A7.2,7.2,0,0,0,33.759,104a5.475,5.475,0,0,0-3.866-.525,4.094,4.094,0,0,0-2.694,2.344,4.3,4.3,0,0,0-.184,3.586,5.878,5.878,0,0,0,3.14,2.939,6.044,6.044,0,0,0,3.77.6,4.12,4.12,0,0,0,2.887-2.563A3.674,3.674,0,0,0,36.777,106.627Z" transform="translate(-3.135 -12.716)" fill="#003087"/><path d="M37.042,87.733A4.6,4.6,0,0,1,40.357,88l-.875,1.47a3.5,3.5,0,0,0-2.3-.061,3.578,3.578,0,0,0-1.889,1.671,3.831,3.831,0,0,0-.437,3.315,6.246,6.246,0,0,0,2.913,3.167,6.123,6.123,0,0,0,3.726,1.05,3.656,3.656,0,0,0,2.878-1.924,3.307,3.307,0,0,0,.245-3.28,5.738,5.738,0,0,0-1.356-1.749l.875-1.47A5.843,5.843,0,0,1,46.3,93.279a5.318,5.318,0,0,1-.726,4.374,5.423,5.423,0,0,1-3.149,2.537q-2.624.761-5.852-1.225A7.234,7.234,0,0,1,33.315,95.2a5.476,5.476,0,0,1,.63-4.89,5.248,5.248,0,0,1,3.1-2.58Z" transform="translate(-4.134 -10.966)" fill="#003087"/><path d="M39.92,81.291l5.651-7.6,1.286.953-4.627,6.219,3.184,2.362,4.269-5.764,1.216.875L46.62,84.073,50.172,86.7l4.689-6.254,1.242.936-5.729,7.7Z" transform="translate(-5.001 -9.231)" fill="#003087"/><path d="M51.78,67.176l1.321-1.5,12.867,5.135-1.286,1.452-3.8-1.583-3.394,3.831,1.977,3.691-1.207,1.312Zm7.7,2.93-5.642-2.336,2.922,5.4Z" transform="translate(-6.486 -8.228)" fill="#003087"/><path d="M59,58.533l1.513-1.426,11.958,3.245-7.217-7.7L66.488,51.5l8.931,9.526-1.452,1.356L61.948,59.215l7.2,7.68L67.914,68.05Z" transform="translate(-7.391 -6.451)" fill="#003087"/><path d="M71.12,48.428,72.5,47.3l8.284,10.086L79.4,58.514Z" transform="translate(-8.909 -5.925)" fill="#003087"/><path d="M84.181,39.386a4.645,4.645,0,0,1,2.948,1.54l-1.4,1.006a3.263,3.263,0,0,0-4.487-.149,3.849,3.849,0,0,0-1.7,2.878,6.281,6.281,0,0,0,1.478,4.059,6.123,6.123,0,0,0,3.018,2.414,3.665,3.665,0,0,0,3.385-.674,3.3,3.3,0,0,0,1.5-2.922,5.8,5.8,0,0,0-.569-2.152l1.4-1.006a5.931,5.931,0,0,1,.787,3.691,5.371,5.371,0,0,1-2.388,3.779,5.467,5.467,0,0,1-3.875,1.085c-1.749-.21-3.438-1.347-4.916-3.4A7.3,7.3,0,0,1,77.839,44.8a5.5,5.5,0,0,1,2.493-4.26A5.248,5.248,0,0,1,84.181,39.386Z" transform="translate(-9.75 -4.93)" fill="#003087"/><path d="M98.08,30.123l1.749-.953L110.256,38.4l-1.749.918-3.053-2.79-4.5,2.44.612,4.111-1.592.875Zm6.246,5.38-4.5-4.12.875,6.071Z" transform="translate(-12.286 -3.654)" fill="#003087"/><path d="M107.54,24.761l1.907-.822,10.138,7.138-4.146-9.692,1.548-.665,5.135,12-1.828.779-10.217-7.085,4.146,9.683-1.557.665Z" transform="translate(-13.471 -2.596)" fill="#003087"/><path d="M122.6,18.859l4.968-1.583a4.872,4.872,0,0,1,4.5.569,7.077,7.077,0,0,1,2.581,3.805,8.809,8.809,0,0,1,.411,3.814,4.758,4.758,0,0,1-3.551,4.251L126.563,31.3Zm8.144,9.508a4.724,4.724,0,0,0,1.312-.612,3.219,3.219,0,0,0,1.172-1.749,5.537,5.537,0,0,0,.087-2.152,8.842,8.842,0,0,0-.289-1.347,6.473,6.473,0,0,0-2.047-3.3,3.446,3.446,0,0,0-3.3-.359l-2.922.936,3.044,9.543Z" transform="translate(-15.358 -2.125)" fill="#003087"/><path d="M147.757,12.257l1.959-.367,7,11.984-1.907.35-2.047-3.6-5.03.918-.691,4.1-1.749.324Zm4.269,7-3.009-5.31L148,20Z" transform="translate(-18.2 -1.489)" fill="#003087"/><path d="M166.174,9.65l.166,1.548-4.374.472L163.2,23.077l-1.749.192-1.225-11.424-4.374.464-.192-1.478Z" transform="translate(-19.499 -1.209)" fill="#003087"/><path d="M170.2,9.434h2.537l3.928,10.978L180.216,9.32h2.51l.21,13.051h-1.688l-.122-7.7V11.367l-3.5,11.065h-1.75l-3.936-10.943v1.863c0,.656.052,1.128.052,1.443l.122,7.7h-1.688Z" transform="translate(-21.321 -1.168)" fill="#003087"/><path d="M199.3,12.242a7.2,7.2,0,0,1,.875,4.531,7.768,7.768,0,0,1-1.907,4.706,6.587,6.587,0,0,1-9.692-.577,7.592,7.592,0,0,1-1.1-4.968,7.679,7.679,0,0,1,1.749-4.374,5.7,5.7,0,0,1,5.187-1.968A5.966,5.966,0,0,1,199.3,12.242Zm-2.283,8.144a7.111,7.111,0,0,0,1.373-3.744,5.493,5.493,0,0,0-.875-3.805,4.12,4.12,0,0,0-3.158-1.688,4.286,4.286,0,0,0-3.411,1.093,5.852,5.852,0,0,0-1.636,3.98,5.913,5.913,0,0,0,.77,3.735,4.12,4.12,0,0,0,3.411,1.8,3.691,3.691,0,0,0,3.481-1.373Z" transform="translate(-23.477 -1.194)" fill="#003087"/><path d="M205.359,20.16a3.724,3.724,0,0,0,.166,1.863,3.315,3.315,0,0,0,2.7,1.819,5.03,5.03,0,0,0,1.75,0,2,2,0,0,0,1.863-1.662,1.749,1.749,0,0,0-.359-1.61,6.593,6.593,0,0,0-1.872-1.128l-1.618-.709a7.769,7.769,0,0,1-2.178-1.277,2.747,2.747,0,0,1-.735-2.624,3.805,3.805,0,0,1,1.688-2.624,4.688,4.688,0,0,1,3.5-.5,5.791,5.791,0,0,1,3.158,1.592,3.612,3.612,0,0,1,.787,3.368l-1.627-.3a3.376,3.376,0,0,0-.245-1.679,3.088,3.088,0,0,0-2.405-1.487,2.966,2.966,0,0,0-2.239.254,2.1,2.1,0,0,0-.918,1.382,1.5,1.5,0,0,0,.507,1.522,11.31,11.31,0,0,0,2.126,1.12l1.671.735a5.248,5.248,0,0,1,1.75,1.172,3.114,3.114,0,0,1,.7,2.825,3.341,3.341,0,0,1-2,2.852,6.832,6.832,0,0,1-3.683.262,5.248,5.248,0,0,1-3.429-1.9,4.243,4.243,0,0,1-.691-3.5Z" transform="translate(-25.505 -1.449)" fill="#003087"/><path d="M220.5,14.18l5.659,1.592a3.945,3.945,0,0,1,2.432,1.7,3.569,3.569,0,0,1,.289,2.939,4.068,4.068,0,0,1-1.636,2.309,3.578,3.578,0,0,1-3.105.315L220.219,21.9l-1.469,5.327L217,26.75Zm6.123,3.569a3.726,3.726,0,0,0-1.461-.691l-3.368-.945-1.216,4.374,3.42.918a3.281,3.281,0,0,0,1.986,0,2.047,2.047,0,0,0,1.19-1.531,1.968,1.968,0,0,0-.551-2.126Z" transform="translate(-27.183 -1.776)" fill="#003087"/><path d="M234.239,18.2l1.671.63-1.9,5.047,6.272,2.371L242.2,21.2l1.671.63-4.61,12.246-1.671-.63,2.152-5.712-6.289-2.405-2.161,5.712-1.671-.63Z" transform="translate(-28.764 -2.28)" fill="#003087"/><path d="M249.227,24.18l8.52,4.137-.7,1.435-7-3.385-1.75,3.56,6.447,3.132-.665,1.365-6.438-3.132-1.933,3.98,7.085,3.446-.682,1.391-8.634-4.2Z" transform="translate(-30.501 -3.029)" fill="#003087"/><path d="M262.553,30.94l5.073,3.07a5.826,5.826,0,0,1,1.846,1.627,3.079,3.079,0,0,1-.052,3.569,3.21,3.21,0,0,1-3.184,1.749,2.685,2.685,0,0,1,.56,1.295,2.948,2.948,0,0,1-.481,1.627l-.875,1.531a5.344,5.344,0,0,0-.464,1.015,1.085,1.085,0,0,0,.07.98l-.149.254-1.855-1.12a1.42,1.42,0,0,1,.1-.455,9.557,9.557,0,0,1,.464-.927l1.05-1.916a1.828,1.828,0,0,0,.1-1.942,3.691,3.691,0,0,0-1.2-1.006l-3.341-2.021-2.9,4.785L255.8,42.18Zm1.819,8.083a3.228,3.228,0,0,0,1.89.569,2.064,2.064,0,0,0,1.539-1.172,1.942,1.942,0,0,0,.14-2.134,3.132,3.132,0,0,0-1.067-.918l-3.6-2.178L260.97,37Z" transform="translate(-32.044 -3.876)" fill="#003087"/><path d="M276.04,39.53l1.469,1.023-7.479,10.7-1.461-1.023Z" transform="translate(-33.644 -4.952)" fill="#003087"/><path d="M287.871,49.818a4.592,4.592,0,0,1-.682,3.254L285.842,52a3.263,3.263,0,0,0-1.067-4.374,3.8,3.8,0,0,0-3.228-.875,6.228,6.228,0,0,0-3.5,2.519,6.123,6.123,0,0,0-1.522,3.6,3.647,3.647,0,0,0,1.557,3.07,3.272,3.272,0,0,0,3.219.656,5.634,5.634,0,0,0,1.924-1.12l1.373,1.058a5.913,5.913,0,0,1-3.342,1.749,5.336,5.336,0,0,1-4.286-1.277,5.423,5.423,0,0,1-2.082-3.438c-.289-1.749.359-3.674,1.951-5.651a7.217,7.217,0,0,1,4.137-2.755,5.51,5.51,0,0,1,4.776,1.251A5.248,5.248,0,0,1,287.871,49.818Z" transform="translate(-34.427 -5.644)" fill="#003087"/><path d="M299.894,60.21l1.4,1.435-6.044,12.5-1.356-1.391,1.872-3.7-3.578-3.665L288.4,67.138l-1.26-1.3Zm-3.5,7.479,2.729-5.458-5.59,2.519Z" transform="translate(-35.97 -7.542)" fill="#003087"/><path d="M307.647,68l3.289,4.05a4.881,4.881,0,0,1,1.111,4.374,7,7,0,0,1-2.624,3.788,8.915,8.915,0,0,1-3.4,1.749,4.758,4.758,0,0,1-5.248-1.749L297.5,76.17Zm-5.9,11.057a4.946,4.946,0,0,0,1.059,1,3.2,3.2,0,0,0,2.073.446,5.634,5.634,0,0,0,2.038-.709,6.865,6.865,0,0,0,1.146-.761,6.438,6.438,0,0,0,2.327-3.105,3.437,3.437,0,0,0-.875-3.2l-1.959-2.344-7.785,6.316Z" transform="translate(-37.268 -8.518)" fill="#003087"/><path d="M317.326,80.3l1.391,2.117-7.146,9.2,11.258-2.957,1.382,2.1-10.891,7.182-.936-1.408,6.438-4.251,1.111-.709,1.662-1.076-11.24,2.939-.962-1.461,7.164-9.185-.332.219-1.207.822-1.19.822L307.4,88.89l-.927-1.408Z" transform="translate(-38.391 -10.059)" fill="#003087"/><path d="M327.021,95.79l.875,1.557-11.372,6.394-.875-1.557Z" transform="translate(-39.541 -12)" fill="#003087"/><path d="M330.008,101.2l.875,1.872-6.709,10.418,9.517-4.54.726,1.522L322.642,116.1l-.875-1.749,6.657-10.5-9.508,4.54-.726-1.522Z" transform="translate(-39.859 -12.677)" fill="#003087"/><path d="M336.714,116.05l.665,1.653-12.124,4.837-.665-1.653Z" transform="translate(-40.661 -14.537)" fill="#003087"/><path d="M331.006,125.732a3.772,3.772,0,0,0-1.557,1.041,3.289,3.289,0,0,0-.3,3.245,4.83,4.83,0,0,0,.814,1.566,1.994,1.994,0,0,0,2.344.875,1.749,1.749,0,0,0,1.242-1.093,6.362,6.362,0,0,0,.1-2.187l-.149-1.749a7.407,7.407,0,0,1,.079-2.528,2.755,2.755,0,0,1,1.942-1.933,3.84,3.84,0,0,1,3.114.227,4.68,4.68,0,0,1,2.117,2.843,5.686,5.686,0,0,1,.114,3.5,3.6,3.6,0,0,1-2.572,2.318l-.516-1.583a3.394,3.394,0,0,0,1.356-1.015,3.088,3.088,0,0,0,.149-2.79,2.948,2.948,0,0,0-1.295-1.846,2.073,2.073,0,0,0-1.653-.149,1.5,1.5,0,0,0-1.093,1.172,10.7,10.7,0,0,0,.044,2.406l.149,1.819a5.316,5.316,0,0,1-.166,2.134,3.14,3.14,0,0,1-2.152,1.977,3.342,3.342,0,0,1-3.455-.516,6.771,6.771,0,0,1-2-3.105,5.249,5.249,0,0,1,0-3.919,4.216,4.216,0,0,1,2.773-2.292Z" transform="translate(-40.998 -15.376)" fill="#003087"/><path d="M345.394,143.778l-1.513.367-1.041-4.269-11.17,2.738-.42-1.749,11.153-2.72-1.041-4.277,1.5-.367Z" transform="translate(-41.495 -16.723)" fill="#003087"/><path d="M346.156,148.42l.875,5.861a5.791,5.791,0,0,1-.07,2.458,3.07,3.07,0,0,1-2.773,2.248,3.421,3.421,0,0,1-1.968-.184,3.5,3.5,0,0,1-1.312-1.128,2.676,2.676,0,0,1-.63,1.26,2.974,2.974,0,0,1-1.557.674l-1.75.324a5.447,5.447,0,0,0-1.085.3,1.085,1.085,0,0,0-.7.682l-.289.044-.332-2.143a1.634,1.634,0,0,1,.411-.21,9.3,9.3,0,0,1,1.006-.245l2.134-.429a1.855,1.855,0,0,0,1.557-1.181,3.778,3.778,0,0,0,0-1.557l-.595-3.866-5.528.875-.271-1.749ZM341.117,155a3.306,3.306,0,0,0,.779,1.819,2.091,2.091,0,0,0,1.881.429,1.959,1.959,0,0,0,1.749-1.268,3.122,3.122,0,0,0,.052-1.426l-.639-4.155-4.374.674Z" transform="translate(-41.75 -18.592)" fill="#003087"/><path d="M348.6,168.406l.122,1.986-12.754,5.493-.114-1.933,3.823-1.583-.3-5.117-3.989-1.181-.1-1.811Zm-7.514,3.376,5.642-2.344-5.878-1.749Z" transform="translate(-42.002 -20.577)" fill="#003087"/><path d="M348.882,187.656h-1.557l.079-4.374-11.494-.2v-1.749l11.494.192.079-4.374h1.557Z" transform="translate(-42.079 -22.191)" fill="#003087"/><path d="M348.557,192.09l-.131,1.75-13.016-.98.14-1.749Z" transform="translate(-42.017 -23.94)" fill="#003087"/><path d="M344.6,208.538a7.164,7.164,0,0,1-4.575.647,7.768,7.768,0,0,1-4.592-2.169,6.587,6.587,0,0,1,1.111-9.622,7.523,7.523,0,0,1,5.021-.822,7.672,7.672,0,0,1,4.295,1.951,5.7,5.7,0,0,1,1.68,5.248A5.983,5.983,0,0,1,344.6,208.538Zm-8-2.738a7.059,7.059,0,0,0,3.665,1.583,5.441,5.441,0,0,0,3.84-.656,4.112,4.112,0,0,0,1.863-3.053,4.3,4.3,0,0,0-.875-3.5,5.878,5.878,0,0,0-3.875-1.854,5.948,5.948,0,0,0-3.779.56,4.1,4.1,0,0,0-1.986,3.307A3.674,3.674,0,0,0,336.6,205.8Z" transform="translate(-41.819 -24.609)" fill="#003087"/><path d="M345.115,215.15l-.507,2.021-11.8,3.779,10.234,2.537-.4,1.636L330,221.982l.472-1.924,11.774-3.875-10.226-2.537.411-1.636Z" transform="translate(-41.339 -26.558)" fill="#003087"/></g></g></g></svg>